<?xml version="1.0" standalone="no"?>
<!DOCTYPE svg PUBLIC "-//W3C//DTD SVG 20010904//EN"
 "http://www.w3.org/TR/2001/REC-SVG-20010904/DTD/svg10.dtd">
<svg version="1.0" xmlns="http://www.w3.org/2000/svg"
 width="263.000000pt" height="263.000000pt" viewBox="0 0 263.000000 263.000000"
 preserveAspectRatio="xMidYMid meet">
<metadata>
Created by potrace 1.11, written by Peter Selinger 2001-2013
</metadata>
<g transform="translate(0.000000,263.000000) scale(0.100000,-0.100000)"
fill="#000000" stroke="none">
<path d="M1183 2611 c-89 -31 -158 -92 -201 -181 -23 -47 -27 -68 -27 -145 0
-80 3 -97 30 -148 126 -251 489 -250 612 1 24 50 28 69 28 147 0 108 -26 174
-95 244 -86 87 -231 121 -347 82z m204 -126 c182 -92 154 -360 -43 -410 -101
-25 -199 20 -246 114 -47 93 -34 176 40 250 26 26 63 52 82 58 45 15 126 9
167 -12z"/>
<path d="M374 2095 c-101 -23 -187 -93 -235 -194 -19 -37 -23 -63 -23 -136 0
-80 3 -97 29 -148 136 -272 517 -254 628 30 19 47 25 140 13 193 -42 180 -230
296 -412 255z m176 -135 c78 -40 119 -109 120 -198 0 -158 -165 -264 -307
-197 -59 27 -85 55 -114 119 -79 180 124 366 301 276z"/>
<path d="M2082 2094 c-73 -19 -107 -38 -159 -90 -139 -139 -130 -374 19 -499
64 -54 135 -79 223 -80 71 0 88 4 147 33 148 73 223 234 182 391 -48 182 -231
292 -412 245z m172 -129 c39 -17 99 -80 114 -120 32 -85 15 -169 -47 -232
-138 -143 -374 -47 -375 152 0 159 159 263 308 200z"/>
<path d="M1074 1755 c-42 -18 -65 -48 -71 -94 -10 -71 30 -126 100 -138 74
-12 139 47 139 124 0 82 -91 141 -168 108z"/>
<path d="M1425 1762 c-128 -29 -119 -221 13 -239 46 -6 94 15 119 53 21 33 21
102 -1 136 -24 37 -86 60 -131 50z"/>
<path d="M960 1472 c-56 -26 -80 -62 -80 -121 0 -82 88 -139 164 -107 88 37
104 154 30 210 -28 20 -90 30 -114 18z"/>
<path d="M1585 1466 c-61 -27 -85 -97 -54 -162 23 -48 53 -67 107 -67 49 0 78
16 102 56 37 59 21 124 -39 164 -38 26 -72 28 -116 9z"/>
<path d="M363 1206 c-94 -24 -172 -89 -220 -186 -24 -47 -28 -67 -28 -140 0
-76 4 -93 33 -152 103 -210 370 -257 540 -94 139 132 141 348 4 484 -83 83
-212 118 -329 88z m199 -139 c86 -50 130 -166 98 -261 -55 -168 -288 -199
-387 -52 -40 59 -49 103 -34 171 32 143 197 216 323 142z"/>
<path d="M2066 1204 c-99 -31 -169 -93 -213 -189 -38 -84 -39 -194 -1 -277 43
-92 124 -161 227 -193 84 -26 222 4 299 64 62 50 116 147 127 231 6 54 -14
150 -43 203 -72 134 -252 207 -396 161z m204 -134 c97 -49 143 -187 94 -283
-58 -114 -188 -161 -295 -106 -84 42 -123 104 -123 194 1 171 171 273 324 195z"/>
<path d="M1078 1176 c-47 -31 -67 -90 -47 -141 44 -117 203 -104 233 19 24 99
-100 180 -186 122z"/>
<path d="M1429 1184 c-118 -49 -80 -227 49 -229 53 0 94 24 112 66 46 108 -53
208 -161 163z"/>
<path d="M1220 681 c-100 -21 -195 -97 -239 -191 -36 -76 -37 -211 -3 -283
105 -220 394 -270 558 -95 129 138 127 344 -6 476 -77 77 -206 116 -310 93z
m171 -140 c73 -38 118 -112 119 -194 1 -161 -169 -268 -313 -198 -137 66 -168
235 -66 346 68 73 172 92 260 46z"/>
</g>
</svg>
